<svg width="166" height="44" viewBox="0 0 166 44" fill="none" xmlns="http://www.w3.org/2000/svg">
<path d="M12.9267 1.26732C12.9267 0.5674 13.4941 0 14.194 0H25.8534C26.5533 0 27.1207 0.567399 27.1207 1.26732V12.9267C27.1207 13.6266 26.5533 14.194 25.8534 14.194H17.7425C15.7827 14.194 14.194 15.7827 14.194 17.7425L14.194 25.8534C14.194 26.5533 13.6266 27.1207 12.9267 27.1207H1.26732C0.5674 27.1207 0 26.5533 0 25.8534V14.194C0 13.4941 0.567399 12.9267 1.26732 12.9267H9.37818C11.338 12.9267 12.9267 11.338 12.9267 9.37818V1.26732Z" fill="#3AAFA9"/>
<path d="M1.26732 0C0.567399 0 0 0.567399 0 1.26732V8.2561C0 8.95602 0.567399 9.52342 1.26732 9.52342H8.2561C8.95602 9.52342 9.52342 8.95602 9.52342 8.2561V1.26732C9.52342 0.567399 8.95602 0 8.2561 0H1.26732Z" fill="#3AAFA9"/>
<path d="M19.6646 43.2V19.008H24.1574V43.2H19.6646Z" fill="#FCFFFE"/>
<path d="M32.0833 43.2V19.008H42.002C45.2276 19.008 47.7505 19.7683 49.5707 21.289C51.4139 22.8096 52.3355 24.9178 52.3355 27.6134C52.3355 29.3875 51.9207 30.9197 51.0913 32.2099C50.2619 33.4771 49.0753 34.4563 47.5316 35.1475C46.011 35.8157 44.1793 36.1498 42.0366 36.1498H34.5716L36.5761 34.1107V43.2H32.0833ZM47.9118 43.2L41.7947 34.4218H46.5985L52.7502 43.2H47.9118ZM36.5761 34.5946L34.5716 32.4518H41.8292C43.8107 32.4518 45.2967 32.0256 46.2875 31.1731C47.3012 30.3206 47.8081 29.1341 47.8081 27.6134C47.8081 26.0698 47.3012 24.8832 46.2875 24.0538C45.2967 23.2243 43.8107 22.8096 41.8292 22.8096H34.5716L36.5761 20.5978V34.5946Z" fill="#FCFFFE"/>
<path d="M69.9419 43.5456C68.0987 43.5456 66.3822 43.2461 64.7924 42.647C63.2257 42.025 61.8549 41.161 60.6798 40.055C59.5278 38.9261 58.6292 37.6013 57.9841 36.0806C57.339 34.56 57.0164 32.9011 57.0164 31.104C57.0164 29.3069 57.339 27.648 57.9841 26.1274C58.6292 24.6067 59.5393 23.2934 60.7144 22.1875C61.8894 21.0586 63.2603 20.1946 64.827 19.5955C66.3937 18.9734 68.1102 18.6624 69.9764 18.6624C71.9579 18.6624 73.7665 19.008 75.4024 19.6992C77.0382 20.3674 78.4206 21.3696 79.5496 22.7059L76.6465 25.4362C75.771 24.4915 74.7918 23.7888 73.7089 23.328C72.626 22.8442 71.451 22.6022 70.1838 22.6022C68.9166 22.6022 67.7531 22.8096 66.6933 23.2243C65.6564 23.639 64.7464 24.2266 63.963 24.9869C63.2027 25.7472 62.6036 26.6458 62.1659 27.6826C61.7512 28.7194 61.5438 29.8598 61.5438 31.104C61.5438 32.3482 61.7512 33.4886 62.1659 34.5254C62.6036 35.5622 63.2027 36.4608 63.963 37.2211C64.7464 37.9814 65.6564 38.569 66.6933 38.9837C67.7531 39.3984 68.9166 39.6058 70.1838 39.6058C71.451 39.6058 72.626 39.3754 73.7089 38.9146C74.7918 38.4307 75.771 37.705 76.6465 36.7373L79.5496 39.5021C78.4206 40.8154 77.0382 41.8176 75.4024 42.5088C73.7665 43.2 71.9464 43.5456 69.9419 43.5456Z" fill="#FCFFFE"/>
<path d="M101.937 43.2V19.008H106.429V43.2H101.937ZM84.9331 43.2V19.008H89.4259V43.2H84.9331ZM89.0457 32.832V28.9958H102.282V32.832H89.0457Z" fill="#FCFFFE"/>
<path d="M110.873 43.2L121.759 19.008H126.183L137.104 43.2H132.404L123.038 21.3926H124.835L115.504 43.2H110.873ZM115.884 37.6013L117.094 34.0762H130.157L131.367 37.6013H115.884Z" fill="#FCFFFE"/>
<path d="M141.563 43.2V19.008H152.138C154.765 19.008 157.069 19.5149 159.05 20.5286C161.032 21.5424 162.575 22.9478 163.681 24.745C164.787 26.5421 165.34 28.6618 165.34 31.104C165.34 33.5232 164.787 35.6429 163.681 37.463C162.575 39.2602 161.032 40.6656 159.05 41.6794C157.069 42.6931 154.765 43.2 152.138 43.2H141.563ZM146.056 39.3984H151.931C153.728 39.3984 155.295 39.0528 156.631 38.3616C157.967 37.6704 158.993 36.7027 159.707 35.4586C160.444 34.2144 160.813 32.7629 160.813 31.104C160.813 29.4221 160.444 27.9706 159.707 26.7494C158.993 25.5053 157.967 24.5376 156.631 23.8464C155.295 23.1552 153.728 22.8096 151.931 22.8096H146.056V39.3984Z" fill="#FCFFFE"/>
</svg>
