<svg width="154" height="154" viewBox="0 0 154 154" fill="none" xmlns="http://www.w3.org/2000/svg">
<g filter="url(#filter0_d_273_5531)">
<path d="M77 0C36.7454 0 4 32.7454 4 73C4 113.255 36.7454 146 77 146C115.829 146 147.624 115.488 149.81 77.1823C142.61 90.1331 133.39 101.634 125.286 109.69C117.991 119.267 108.035 126.681 96.3906 130.602C99.361 124.875 101.642 117.841 103.424 110.07C99.9788 106.601 95.9867 102.324 91.8281 97.3333H60.4609C59.6292 91.749 59.154 85.6419 58.9401 79.0833H78.7109C76.3346 75.1862 74.1722 71.1227 72.2474 66.9167H58.9401C59.154 60.3581 59.6292 54.251 60.4609 48.6667H66.1641C65.3561 44.6507 64.8333 40.5872 64.8333 36.5H62.9323C63.7878 33.1494 64.7858 30.084 65.7839 27.375C67.8275 16.6341 73.3167 7.2002 81.1823 0.190104C79.7803 0.118814 78.402 0 77 0ZM113.5 0C93.4202 0 77 16.4202 77 36.5C77 42.5358 79.3288 48.6904 82.3229 55.5104C85.3171 62.3304 89.0954 69.5544 92.9688 76.2318C100.715 89.5866 108.557 100.755 108.557 100.755L113.5 107.979L118.443 100.755C118.443 100.755 126.285 89.5866 134.031 76.2318C137.905 69.5544 141.683 62.3304 144.677 55.5104C147.671 48.6904 150 42.5358 150 36.5C150 16.4202 133.58 0 113.5 0ZM113.5 12.1667C126.997 12.1667 137.833 23.0026 137.833 36.5C137.833 38.8525 136.36 44.4131 133.651 50.5677C130.942 56.7223 127.116 63.7087 123.385 70.1484C118.419 78.7031 116.28 81.7448 113.5 85.9271C110.72 81.7448 108.581 78.7031 103.615 70.1484C99.8838 63.7087 96.0579 56.7223 93.349 50.5677C90.64 44.4131 89.1667 38.8525 89.1667 36.5C89.1667 23.0026 100.003 12.1667 113.5 12.1667ZM57.6094 15.3984C54.5677 21.2679 52.1914 28.4681 50.3854 36.5H28.5234C35.8424 26.7809 45.8467 19.3431 57.6094 15.3984ZM113.5 27.375C108.462 27.375 104.375 31.4622 104.375 36.5C104.375 41.5378 108.462 45.625 113.5 45.625C118.538 45.625 122.625 41.5378 122.625 36.5C122.625 31.4622 118.538 27.375 113.5 27.375ZM21.2995 48.6667H48.2943C47.4863 54.5837 46.9635 60.7145 46.7734 66.9167H16.5469C17.1885 60.4769 18.8044 54.346 21.2995 48.6667ZM16.5469 79.0833H46.7734C46.9635 85.2855 47.4863 91.4163 48.2943 97.3333H21.2995C18.8044 91.654 17.1885 85.5231 16.5469 79.0833ZM28.5234 109.5H50.3854C52.1914 117.532 54.5439 124.732 57.6094 130.602C45.8467 126.657 35.8424 119.219 28.5234 109.5ZM62.9323 109.5H91.0677C87.1943 124.803 81.4199 133.833 77 133.833C72.5801 133.833 66.7819 124.803 62.9323 109.5Z" fill="#17252A" fill-opacity="0.12" shape-rendering="crispEdges"/>
</g>
<defs>
<filter id="filter0_d_273_5531" x="0" y="0" width="154" height="154" filterUnits="userSpaceOnUse" color-interpolation-filters="sRGB">
<feFlood flood-opacity="0" result="BackgroundImageFix"/>
<feColorMatrix in="SourceAlpha" type="matrix" values="0 0 0 0 0 0 0 0 0 0 0 0 0 0 0 0 0 0 127 0" result="hardAlpha"/>
<feOffset dy="4"/>
<feGaussianBlur stdDeviation="2"/>
<feComposite in2="hardAlpha" operator="out"/>
<feColorMatrix type="matrix" values="0 0 0 0 0 0 0 0 0 0 0 0 0 0 0 0 0 0 0.25 0"/>
<feBlend mode="normal" in2="BackgroundImageFix" result="effect1_dropShadow_273_5531"/>
<feBlend mode="normal" in="SourceGraphic" in2="effect1_dropShadow_273_5531" result="shape"/>
</filter>
</defs>
</svg>
