<svg width="26" height="26" viewBox="0 0 26 26" fill="none" xmlns="http://www.w3.org/2000/svg">
<path d="M13.6095 2.03125C12.8242 2.03125 12.1876 2.66784 12.1876 3.45312V3.65625C12.1876 4.44153 12.797 5.28125 13.6095 5.28125C14.422 5.28125 15.0314 4.44153 15.0314 3.65625V3.45312C15.0314 2.66784 14.3948 2.03125 13.6095 2.03125ZM12.5733 6.07391C12.4284 6.07356 12.295 6.07812 12.1741 6.08502C11.7118 6.11143 11.287 6.33636 10.9998 6.69995L9.22328 8.9502C9.0689 9.14601 8.96186 9.37454 8.90986 9.61829L8.24971 12.712L8.13703 13.2238C8.12322 13.2859 8.12436 13.3508 8.14021 13.4126L8.24098 13.8038C8.27916 13.9512 8.39618 14.0644 8.54487 14.0981L9.01063 14.2037C9.20116 14.2467 9.39522 14.148 9.47322 13.9688L9.66841 13.5181C9.70213 13.4405 9.71047 13.355 9.693 13.2722L9.58668 12.7699L10.1596 10.234L11.199 9.28107L10.9617 12.8389C10.9252 13.3857 11.0735 13.9293 11.3839 14.3814L14.0158 17.6719L16.1486 23.2975C16.2225 23.4921 16.4307 23.5991 16.6318 23.5458L18.6234 22.8389L18.5083 22.2152C18.4758 22.0389 18.332 21.9038 18.1536 21.8843L17.3983 21.801L16.047 17.6719L14.5529 13.9276L14.8513 9.46912C14.9857 7.45818 13.8519 6.14501 13.0414 6.09058C12.8744 6.0794 12.7181 6.07427 12.5733 6.07391ZM15.5979 10.234L15.6884 11.8701L17.1943 12.2534L17.7799 12.5438C17.9404 12.6234 18.1341 12.5881 18.2568 12.4573L18.5797 12.1129C18.7085 11.9756 18.7262 11.7671 18.6218 11.6099L18.406 11.2853C18.3458 11.1947 18.2514 11.1323 18.1441 11.1116L17.645 11.0156L15.5979 10.234ZM10.9895 15.1661L10.8641 17.875L8.58058 22.0779C8.49445 22.2364 8.52363 22.4324 8.65119 22.5596L9.65809 23.5625H10.9641V23.1562C10.9641 22.932 10.7821 22.75 10.5579 22.75L10.4825 22.0573L12.943 18.5169L13.0803 17.9401L10.9895 15.1661Z" fill="#17252A"/>
</svg>
